<svg height="60" viewBox="0 0 100 60" width="100" xmlns="http://www.w3.org/2000/svg"><g fill="none" fill-rule="evenodd"><rect fill="#0072ce" height="60" rx="4" width="100"/><path d="m84.4073613 34.6655831h-3.5330409c-.3527415 0-.5870871.0131697-.7844951.1460864-.204502.1309657-.2832695.3253412-.2832695.581907 0 .3050988.1727015.512644.4239258.6023933.204502.0709702.4241704.0917003.7470682.0917003l1.0506412.0280467c1.0601814.0260955 1.7678659.207789 2.1993749.6509261.0785229.0617026.1257344.1309657.1797954.2002287zm0 5.3320338c-.4708928.6865331-1.3884609 1.0345555-2.6306392 1.0345555h-3.7436584v-1.7342585h3.728492c.3698648 0 .6286723-.0485329.784495-.2002286.1350301-.1251125.2292086-.306806.2292086-.5275209 0-.2355919-.0941785-.4226508-.2367918-.5348374-.1406562-.1234053-.3454029-.1794986-.6829779-.1794986-1.8202145-.0617026-4.0910182.0560933-4.0910182-2.5032244 0-1.1730815.7470682-2.4078657 2.7813248-2.4078657h3.8613205v-1.609146h-3.5875911c-1.0826864 0-1.8691384.2585169-2.4261372.6604376v-.6604376h-5.306533c-.8485854 0-1.8446765.2097401-2.3158138.6604376v-.6604376h-9.4760741v.6604376c-.7541623-.5423978-2.0266734-.6604376-2.6140051-.6604376h-6.25052v.6604376c-.5966272-.5760538-1.923444-.6604376-2.7321564-.6604376h-6.9953867l-1.6007907 1.7271858-1.4992735-1.7271858h-10.4496602v11.2849959h10.252986l1.64947-1.7545008 1.5538237 1.7545008 6.319992.0056094v-2.6546763h.6213338c.838556.0129258 1.8275531-.0207302 2.7001112-.3967991v3.0456222h5.2128437v-2.9412399h.2514689c.3209409 0 .3524969.0131697.3524969.3329015v2.6080945h15.8356945c1.0053866 0 2.0562724-.2565659 2.6382224-.7221403v.7221403h5.0230189c1.0452595 0 2.0660571-.1460865 2.8427244-.5202044zm-7.7326702-3.230974c.377448.3894826.5797484.8811525.5797484 1.7135283 0 1.7398678-1.0902696 2.5520012-3.0452694 2.5520012h-3.7757036v-1.7342585h3.7605372c.3676632 0 .6284277-.0485329.7918336-.2002286.1333177-.1251125.228964-.306806.228964-.5275209 0-.2355919-.1034741-.4226508-.2365472-.5348374-.1482395-.1234053-.3527414-.1794986-.6903165-.1794986-1.8128759-.0617026-4.0831904.0560933-4.0831904-2.5032244 0-1.1730815.7392405-2.4078657 2.7715401-2.4078657h3.8862716v1.7213325h-3.5560351c-.3524969 0-.5817054.0131698-.7766673.1460865-.2123298.1309657-.2910973.3253411-.2910973.581907 0 .3050988.1802847.512644.4241704.6023932.204502.0709703.4241704.0917004.7544068.0917004l1.0435473.0280466c1.0523535.0256078 1.7747152.2070575 2.2138074.6504384zm-17.4922585-.4994742c-.2592968.1534029-.5799931.1665727-.9571965.1665727h-2.3549529v-1.8164473h2.3869981c.3451582 0 .6905611.0073165.9251513.1460864.2512243.1309657.4014208.3814344.4014208.7275057s-.1501965.6248306-.4014208.7762825zm1.1707494 1.0065088c.431509.1587685.7842505.443381.9496133.6789728.2737293.3948481.3133577.7633566.3211855 1.4762293v1.6032928h-1.9461935v-1.0118743c0-.4865484.046967-1.2069815-.3133577-1.5830505-.2832695-.289734-.7150231-.3589971-1.4222184-.3589971h-2.0716834v2.9539219h-1.9479059v-8.087678h4.4755603c.9814138 0 1.6961923.0431674 2.3324479.3816783.6117936.3685086.9965802.8733482.9965802 1.795961-.0002446 1.2908775-.8637518 1.949608-1.3740283 2.1515438zm2.4488868-4.3291831h6.4699439v1.6725558h-4.539406v1.470376h4.4285933v1.6501185h-4.4285933v1.609146l4.539406.0073165v1.6781652h-6.4699439zm-13.0790762 3.7323992h-2.5051493v-2.0595995h2.5276543c.6998567 0 1.1856712.2843686 1.1856712.9916319 0 .699459-.4633095 1.0679676-1.2081762 1.0679676zm-4.4359318 3.6197249-2.9762867-3.2943837 2.9762867-3.1897576zm-7.6861925-.9499278h-4.7661683v-1.609146h4.2558918v-1.6501185h-4.2558918v-1.470376h4.8601022l2.1203627 2.356894zm15.4115241-3.7377647c0 2.2466585-1.6812705 2.7105257-3.3757505 2.7105257h-2.4187986v2.7127207h-3.7678757l-2.3869981-2.6773575-2.4806874 2.6773575h-7.6786093v-8.087678h7.7967606l2.3850411 2.651018 2.4657656-2.651018h6.1942575c1.5384127 0 3.2668948.4246018 3.2668948 2.6644316zm-31.3575421-11.9846989-1.3268167-3.2234135-1.3192335 3.2234135zm29.2295962-1.283561c-.2663908.1612073-.5814608.1665727-.9589089.1665727h-2.3549529v-1.795961h2.3869981c.3378197 0 .6903165.0151208.9192805.1458426.2514689.1177959.407047.3685085.407047.7148237 0 .3533877-.1479949.6377564-.3994638.768722zm16.799985 1.283561-1.3414939-3.2234135-1.3341553 3.2234135zm-31.3162014 3.4890031h-1.9872896l-.0073386-6.3326894-2.8109239 6.3326894h-1.7020632l-2.8182624-6.3382987v6.3382987h-3.9427787l-.7448667-1.8035214h-4.0362234l-.7524499 1.8035214h-2.1054409l3.4713967-8.0857269h2.8801512l3.296983 7.6555157v-7.6555157h3.1639099l2.5369499 5.4851929 2.330491-5.4851929h3.227511v8.0857269zm7.9205381 0h-6.4758147v-8.0857269h6.4758147v1.6837745h-4.5372044v1.4574502h4.4283486v1.657435h-4.4283486v1.6147553h4.5372044zm9.1306712-5.9080875c0 1.2891703-.8630179 1.9552172-1.3659558 2.155202.4241703.1609634.786452.445332.9589088.6809239.2737293.4021645.3209409.7614055.3209409 1.4835458v1.5884158h-1.9552445l-.0073386-1.0196786c0-.4865483.0467224-1.1862513-.3060191-1.5752461-.2832695-.2843686-.7150231-.3460713-1.4129228-.3460713h-2.0809789v2.940996h-1.9383658v-8.0857269h4.4586815c.9907094 0 1.7206543.0260956 2.3473697.3872876.6132613.3611921.9809246.8884691.9809246 1.7903518zm3.1022658 5.9080875h-1.9779941v-8.0857269h1.9779941zm22.9472756 0h-2.7470782l-3.674431-6.068807v6.068807h-3.9479157l-.7544069-1.8035214h-4.0269279l-.7319018 1.8035214h-2.2683576c-.9422747 0-2.1352845-.207789-2.8109238-.8943222-.6812656-.6865332-1.0357194-1.6164625-1.0357194-3.0868386 0-1.1991772.2118406-2.2954353 1.0450149-3.1617109.6267154-.6453168 1.6081293-.9428552 2.9439969-.9428552h1.8767216v1.7325513h-1.8373378c-.7074399 0-1.1069037.10487-1.4916903.4789879-.3304811.340462-.5572435.9840716-.5572435 1.8315682 0 .8662756.1727014 1.4908623.5330261 1.89888.2984359.3199757.8407576.4170415 1.3510341.4170415h.8706011l2.7321564-6.358785h2.9046131l3.2820612 7.6479553v-7.6479553h2.9515801l3.4075511 5.6312793v-5.6312793h1.9855773zm-64.030893 1.588172h3.3121494l.7468236-1.795961h1.671975l.7448667 1.795961h6.5169108v-1.3730664l.5817054 1.3789196h3.3830891l.5817054-1.3994058v1.3935526h16.1957745l-.0075832-2.9480686h.3133578c.2194237.0075604.2835141.0278028.2835141.3889948v2.5590738h8.376509v-.6862893c.6756393.3609482 1.7265251.6862893 3.1093597.6862893h3.52399l.7541622-1.795961h1.671975l.7375281 1.795961h6.7908848v-1.7059679l1.0283808 1.7059679h5.4418076v-11.2771917h-5.3855451v1.33185l-.7541622-1.33185h-5.5262015v1.33185l-.6925181-1.33185h-7.4645671c-1.2495169 0-2.3478589.1738892-3.2350942.6584866v-.6584866h-5.1511996v.6584866c-.564582-.4994743-1.3339107-.6584866-2.1893454-.6584866h-18.8193198l-1.2627264 2.9127055-1.2967285-2.9127055h-5.9276222v1.33185l-.6511774-1.33185h-5.0553086l-2.3476144 5.3617876v5.9154041z" fill="#fff"/></g></svg>