<svg height="77" viewBox="0 0 111 77" width="111" xmlns="http://www.w3.org/2000/svg"><g fill="none" fill-rule="evenodd"><path d="m45.7455753 67.9216225c3.5243036 3.6351805 8.4309312 5.8896395 13.857487 5.8896395 7.2136143 0 13.5072359-3.9819017 16.858749-9.893115 2.9125318 1.2882624 6.1363978 2.0048198 9.5283843 2.0048198 13.0106579 0 23.5586614-10.5326232 23.5586614-23.5246563 0-12.993574-10.5480035-23.5261972-23.5586614-23.5261972-1.5878046 0-3.1398058.1571803-4.6404368.4576721-2.9514486-5.2116066-8.5757016-8.7327543-15.031217-8.7327543-2.7023812 0-5.2584353.6179345-7.5342886 1.7166558-2.991922-6.96678702-9.9626956-11.85170516-18.0869625-11.85170516-8.460508 0-15.6710089 5.29944274-18.4387703 12.73160686-1.2095335-.2542623-2.4626538-.3867869-3.7484642-.3867869-10.07321932 0-18.23951639 8.1672133-18.23951639 18.2437053 0 6.7525903 3.669074 12.6483937 9.12053651 15.8027872-1.12235993 2.5564919-1.74658508 5.3780329-1.74658508 8.3444264 0 11.588197 9.50347766 20.9820333 21.22521166 20.9820333 6.8820434 0 12.9982045-3.2391476 16.8758724-8.2581314" fill="#00a1e0" transform="matrix(1 0 0 -1 0 76.642)"/><g fill="#fff"><path d="m16.0984606 32.2720442c-.0684936-.1772131.0249067-.2141967.0467001-.2450164.2054806-.1479344.4140745-.2542623.6242252-.372918 1.1145765-.5855738 2.1668863-.756623 3.2674528-.756623 2.2416065 0 3.6332706 1.1803935 3.6332706 3.0804263v.0369836c0 1.7567214-1.5706813 2.3946886-3.0448489 2.8554427l-.1914706.0616394c-1.1114632.3575082-2.0703726.6657049-2.0703726 1.3899672v.0385246c0 .6194754.5604016 1.0756066 1.4290241 1.0756066.9651362 0 2.1108462-.3174427 2.8487083-.7211804 0 0 .2163773-.1386885.2957675.0693443.0435868.1109508.4171879 1.1064262.4561047 1.2142951.0420301.1171148-.0326901.2034098-.108967.2496393-.8421591.5069837-2.0065492.853705-3.2114127.853705l-.2241606-.001541c-2.0516927 0-3.4838301-1.226623-3.4838301-2.9848853v-.0369836c0-1.8538033 1.5800212-2.454787 3.0604155-2.8739345l.2381707-.0724262c1.0787731-.3282296 2.0081058-.6102296 2.0081058-1.3622296v-.0369836c0-.6872787-.6039884-1.1988853-1.5784645-1.1988853-.3782711 0-1.5846913.007705-2.8876251.8228853-.1572238.090918-.2490674.1571803-.3704877.2296066-.0638236.0400655-.2241607.1094098-.2942109-.100164z" transform="matrix(1 0 0 -1 0 72)"/><path d="m48.9146466 32.2720442c-.0684935-.1772131.0249067-.2141967.0467001-.2450164.2054806-.1479344.4140746-.2542623.6242252-.372918 1.1145765-.5855738 2.1668863-.756623 3.2674528-.756623 2.2416065 0 3.6332706 1.1803935 3.6332706 3.0804263v.0369836c0 1.7567214-1.5706813 2.3946886-3.0448489 2.8554427l-.1914705.0616394c-1.1114633.3575082-2.0703727.6657049-2.0703727 1.3899672v.0385246c0 .6194754.5604016 1.0756066 1.4290241 1.0756066.9651362 0 2.1108462-.3174427 2.8487083-.7211804 0 0 .2163773-.1386885.2957675.0693443.0435868.1109508.4171879 1.1064262.4561047 1.2142951.0420301.1171148-.0326901.2034098-.108967.2496393-.8421591.5069837-2.0065492.853705-3.2114127.853705l-.2241606-.001541c-2.0516926 0-3.4838301-1.226623-3.4838301-2.9848853v-.0369836c0-1.8538033 1.5800212-2.454787 3.0604155-2.8739345l.2381707-.0724262c1.0787732-.3282296 2.0096625-.6102296 2.0096625-1.3622296v-.0369836c0-.6872787-.6055451-1.1988853-1.5800212-1.1988853-.3782711 0-1.5846913.007705-2.8876251.8228853-.1572238.090918-.2506241.1540984-.3689311.2296066-.0404734.0261967-.2303873.0986229-.2957675-.100164z" transform="matrix(1 0 0 -1 0 72)"/><path d="m71.31733 35.987049c0-1.0740656-.2023673-1.9200656-.6008751-2.5179672-.3938378-.5917378-.9900429-.8799017-1.8213053-.8799017-.8328191 0-1.4259108.286623-1.813522.8799017-.3922811.5963606-.591535 1.4439016-.591535 2.5179672 0 1.0725246.1992539 1.9169837.591535 2.5087214.3876112.5855738.9807029.8706557 1.813522.8706557.8312624 0 1.4274675-.2850819 1.8228619-.8706557.3969512-.5917377.5993185-1.4361968.5993185-2.5087214m1.8711187 1.9909509c-.1836872.6148525-.4701147 1.1572787-.8514991 1.6087869-.3813845.4530492-.8639525.8167213-1.4368075 1.0817705-.5712984.2635082-1.2468936.3975738-2.0049925.3975738-.7596556 0-1.4352509-.1340656-2.0065492-.3975738-.572855-.2650492-1.0554231-.6287213-1.4383642-1.0817705-.3798277-.4530492-.6662552-.9954754-.8514991-1.6087869-.1821305-.6117705-.2739741-1.2805574-.2739741-1.9909509 0-.7103934.0918436-1.3807213.2739741-1.9909508.1852439-.6133115.4701147-1.1557378.8530558-1.608787.3813844-.4530491.8655092-.8151803 1.4368075-1.0725246.572855-.2573442 1.2468936-.3883278 2.0065492-.3883278.7580989 0 1.4321375.1309836 2.0049925.3883278.5712983.2573443 1.055423.6194755 1.4368075 1.0725246.3813844.4515082.6678119.9939345.8514991 1.608787.1836872.6117705.2755308 1.2820983.2755308 1.9909508s-.0918436 1.3791804-.2755308 1.9909509" transform="matrix(1 0 0 -1 0 71.993)"/><path d="m88.5538901 32.8617769c-.0622669.1802951-.2381707.1124918-.2381707.1124918-.2724175-.1032459-.5619583-.1987869-.8701792-.2465574-.3128909-.0477705-.6569153-.0724262-1.0258463-.0724262-.9059827 0-1.6251648.2665902-2.1404229.7936066-.5168149.5270164-.8063557 1.3791803-.8032424 2.5318361.0031134 1.0494099.2584075 1.8383935.7176255 2.4393771.4561046.5979016 1.15038.9045574 2.0765993.9045574.7721089 0 1.3605307-.0878361 1.9769724-.280459 0 0 .1478838-.0631804.217934.1279016.1634505.4499672.2848708.7720328.459218 1.2666886.0498135.1402295-.0716069.2003278-.1151937.2172787-.2428407.094-.8156957.2465573-1.2484503.3112787-.4047345.0616393-.8779625.094-1.4041174.094-.7861189 0-1.486621-.1325246-2.0859394-.3975738-.5977617-.2635082-1.1052365-.6271804-1.5068577-1.0802296-.4016211-.4530491-.7067287-.9954754-.9106526-1.6087869-.2023673-.6117705-.3051076-1.2836393-.3051076-1.9940328 0-1.5363607.4187446-2.7783935 1.245337-3.6875739.8281491-.9122623 2.0719293-1.3760983 3.6939807-1.3760983.9589095 0 1.9427257.1926229 2.6494544.468459 0 0 .1354304.0647213.0762769.2203606z" transform="matrix(1 0 0 -1 0 71.978)"/><path d="m91.827711 37.0184438c.0887303.5963607.2552941 1.0925574.5121448 1.4793443.3876111.5871147.9791462.9091803 1.8104086.9091803s1.3807674-.3236065 1.7746052-.9091803c.2615207-.3867869.3751577-.9045574.4203012-1.4793443zm6.2998483 1.3113771c-.1587804.5932787-.5526183 1.1927213-.8110257 1.4670164-.4078478.4345574-.8063557.7381312-1.2017501.9076394-.5168149.2188196-1.13637.3636721-1.8150786.3636721-.790789 0-1.5084144-.1309836-2.0906095-.4021967-.5837517-.2712132-1.0741031-.6410492-1.4586009-1.1018033-.3844977-.4592132-.6740386-1.0062624-.8577258-1.6272788-.1852439-.6179344-.2786441-1.2913443-.2786441-2.0017377 0-.7227213.0965136-1.3961312.2879841-2.0017378.1930273-.6102295.5012482-1.1480328.918436-1.593377.4156312-.4484263.9511261-.7997706 1.5924747-1.044787.6366785-.2434754 1.4103441-.369836 2.2992033-.368295 1.8290887.0061639 2.7926681.4099016 3.1896193.6271803.0700502.0385246.1369871.1063279.0529268.3004918l-.4140745 1.1480328c-.0622669.1710492-.2381707.1078689-.2381707.1078689-.4529913-.1664263-1.0974532-.4653771-2.5996409-.4622951-.9822595.001541-1.7107816.2881639-2.1668863.7365902-.468558.4592131-.6973887 1.1341639-.7378622 2.0864918l6.3340951-.0061639s.1665638.0030819.1836872.1633442c.0062267.0678033.217934 1.2882624-.1883572 2.7013444z" transform="matrix(1 0 0 -1 0 71.995)"/><path d="m41.1007797 37.0184438c.0902869.5963607.255294 1.0925574.5121448 1.4793443.3876111.5871147.9791462.9091803 1.8104086.9091803s1.3807673-.3236065 1.7761618-.9091803c.2599641-.3867869.3736011-.9045574.4187446-1.4793443zm6.2982916 1.3113771c-.1587805.5932787-.5510616 1.1927213-.809469 1.4670164-.4078479.4345574-.8063557.7381312-1.2017502.9076394-.5168148.2188196-1.1363699.3636721-1.8150786.3636721-.7892323 0-1.5084144-.1309836-2.0906094-.4021967-.5837517-.2712132-1.0741031-.6410492-1.4586009-1.1018033-.3844978-.4592132-.6740386-1.0062624-.8577258-1.6272788-.1836872-.6179344-.2786442-1.2913443-.2786442-2.0017377 0-.7227213.0965136-1.3961312.2879842-2.0017378.1930272-.6102295.5012481-1.1480328.918436-1.593377.4156312-.4484263.9511261-.7997706 1.5924746-1.044787.6366786-.2434754 1.4103441-.369836 2.2992034-.368295 1.8290886.0061639 2.7926681.4099016 3.1896193.6271803.0700502.0385246.136987.1063279.0529268.3004918l-.4125179 1.1480328c-.0638235.1710492-.2397274.1078689-.2397274.1078689-.4529913-.1664263-1.0958965-.4653771-2.6011975-.4622951-.9807029.001541-1.709225.2881639-2.1653296.7365902-.4685581.4592131-.6973887 1.1341639-.7378622 2.0864918l6.3340951-.0061639s.1665638.0030819.1836872.1633442c.0062267.0678033.217934 1.2882624-.1899139 2.7013444z" transform="matrix(1 0 0 -1 0 71.995)"/><path d="m27.4097005 32.9013819c-.2475107.195705-.2817575.2450164-.3658178.3713771-.1245336.1926229-.1883572.466918-.1883572.8151803 0 .5516722.1836872.947705.5650717 1.2142951-.00467-.0015409.5448349.4700001 1.836872.4530492.9075393-.0123278 1.718565-.1448524 1.718565-.1448524v-2.8508198h.0015567s-.8047991-.1710491-1.7107817-.2249836c-1.2889237-.0770492-1.8617787.3682951-1.8571087.3667541m2.5202506 4.4056723c-.2568507.0184918-.5899783.0292786-.9884862.0292786-.5432782 0-1.0678764-.0678032-1.5597845-.1987868-.4950214-.1309836-.9402294-.3359345-1.3231705-.6071476-.3844978-.2727541-.6942754-.6210164-.918436-1.034-.2241607-.4129836-.3377977-.8999345-.3377977-1.4454427 0-.5547541.0965136-1.037082.2895409-1.4315738.1930272-.3960328.4716713-.7258033.8265924-.9800656.3518077-.2542623.7861189-.4407213 1.2904804-.5532131.4965781-.1124918 1.0600931-.1695082 1.6765349-.1695082.6491319 0 1.2967071.0523934 1.9240456.1587213.6211118.1047869 1.3838807.2573443 1.5955879.3051148.2101506.0493115.4436513.1124918.4436513.1124918.1572238.0385246.1447704.2049508.1447704.2049508l-.0031133 5.7340001c0 1.2574427-.3393543 2.1897378-1.0071663 2.7676067-.6646986.5763278-1.6438447.8675737-2.9094184.8675737-.4747847 0-1.2391103-.0647213-1.6967716-.1556393 0 0-1.3838807-.2650492-1.9536224-.7057705 0 0-.1245337-.0770492-.0560401-.2496394l.4483213-1.1927213c.0560401-.1540984.2070372-.1017049.2070372-.1017049s.0482569.0184918.104297.0508524c1.2188736.6564591 2.759978.6364263 2.759978.6364263.6849354 0 1.2110902-.1356066 1.5660113-.4052787.345581-.2619672.5214848-.658.5214848-1.4932132v-.2650491c-.5448349.0770491-1.0445264.1217377-1.0445264.1217377" transform="matrix(1 0 0 -1 0 71.984)"/><path d="m81.0170989 40.4476013c.0482568.1417705-.0529268.2095738-.0949569.2249836-.1074103.0416066-.6460186.1540984-1.0616498.1802951-.7954589.0477705-1.2375536-.0847541-1.632948-.2604262-.3922812-.1756722-.8281491-.4592131-1.0709898-.7812787v.7627869c0 .1063278-.0762769.1910819-.1821306.1910819h-1.623608c-.1058537 0-.1821305-.0847541-.1821305-.1910819v-9.3522297c0-.1047869.0871735-.191082.1930272-.191082h1.6640815c.1058536 0 .1914705.0862951.1914705.191082v4.6722624c0 .6271803.0700503 1.2528197.2101507 1.6457705.136987.3883279.3237876.6996066.5541749.9230492.231944.2219016.4950214.377541.7830056.465377.2942109.0893771.6195551.1186558.8499425.1186558.3315709 0 .695832-.0847541.695832-.0847541.1214204-.0138689.1899139.0600983.2303873.1695082.108967.2866229.4171879 1.1449508.4763414 1.316" transform="matrix(1 0 0 -1 0 71.893)"/><path d="m65.3971469 45.1438855c-.2023672.0616394-.3860544.1032459-.6257818.1479345-.2428407.0431475-.5323815.0647213-.8608392.0647213-1.14571 0-2.0485793-.3205246-2.6821444-.9523279-.6304519-.6287213-1.0585364-1.5856722-1.2733571-2.8446558l-.0778335-.4237705h-1.4383642s-.1743472.0061639-.2117073-.1818361l-.2350573-1.3052131c-.0171234-.1232787.0373601-.2018689.2054806-.2018689h1.3994474l-1.4196842-7.8466887c-.1105236-.6318033-.2381707-1.1511148-.3798277-1.5456066-.1385438-.3883278-.2739742-.6795738-.4420947-.8922295-.1618938-.2034098-.3144475-.3544262-.5790816-.4422623-.217934-.0724262-.4701147-.1063279-.7456455-.1063279-.1525538 0-.3564777.0246558-.5074748.0554754-.1494405.0292787-.2288307.0616394-.3424677.1094099 0 0-.1634505.0616393-.2288307-.100164-.0513701-.1340655-.4249712-1.1495738-.4701147-1.2743934-.0435868-.1248197.0186801-.2219017.0980703-.2511804.1868006-.0647213.3253443-.1078688.5790817-.1679672.3518077-.0816721.6491319-.0862951.927776-.0862951.582195 0 1.1145766.0816722 1.5551145.2388525.4420947.1587213.8281491.4345574 1.1706168.8074754.3689311.4037377.6008751.8259673.8219224 1.4038361.2194906.570164.4078478 1.2790164.5572883 2.1049837l1.4274674 7.9930821h2.0859394s.1759039-.0061639.2117073.1833771l.236614 1.3036721c.0155667.1248197-.0373601.2018689-.2070372.2018689h-2.0252293c.0108967.0446885.1027403.750459.3346844 1.414623.0996269.282.2864275.5116065.4436512.6687869.1556672.1540983.3346844.2635082.5308249.3266885.2008106.0647213.4296413.095541.6802653.095541.1899139 0 .3782711-.0215738.5199282-.0508525.1961406-.0416065.2724175-.0631803.3237876-.0785901.2070373-.0616394.2350574-.001541.2755308.0970819l.4841248 1.3160001c.0498134.1417704-.0731636.2018688-.1167504.2188196" transform="matrix(1 0 0 -1 0 72.255)"/><path d="m37.1007578 27.2901977c0-.1047869-.0762769-.189541-.1821305-.189541h-1.6796482c-.1058537 0-.1805739.0847541-.1805739.189541v13.381902c0 .1047868.0747202.1895409.1805739.1895409h1.6796482c.1058536 0 .1821305-.0847541.1821305-.1895409z" transform="matrix(1 0 0 -1 0 67.962)"/></g></g></svg>