<svg height="512" width="512" xmlns="http://www.w3.org/2000/svg" xmlns:xlink="http://www.w3.org/1999/xlink"><clipPath id="a"><path d="m108.95 47.6h464.86v464.86h-464.86z"/></clipPath><g clip-path="url(#a)" fill-rule="evenodd" transform="matrix(1.1014 0 0 1.1014 -120 -52.427)"><path d="m0 47.6h693v464.4h-693z" fill="#fff"/><path d="m1.53 48.16h690.83v196.2h-690.83z"/><path d="m128.29 232.12h458.52v103.35h-458.52z" fill="#0061ff"/><path d="m692.53 49.19v463.27h-345.67zm-691.34 0v463.27h345.67l-345.67-463.27z" fill="#e20000"/><path d="m508.78 232.22-69.285-17.58 58.944-44.467-72.388 10.34 37.228-63.08-64.115 37.23 11.376-73.423-43.432 57.91-17.58-67.217-19.648 69.285-43.433-58.944 12.41 75.49-64.115-39.296 37.228 63.08-70.32-11.375 57.91 43.433-72.387 18.614h321.61z" fill="#ffd600"/></g></svg>