<svg height="512" width="512" xmlns="http://www.w3.org/2000/svg" xmlns:xlink="http://www.w3.org/1999/xlink"><clipPath id="a"><path d="m60.84 337h175v175h-175z"/></clipPath><g clip-path="url(#a)" fill-rule="evenodd" transform="matrix(2.9257 0 0 2.9257 -178 -985.97)"><path d="m0 337 146.56 87.5-146.56 87.5zm293.12 0-146.56 87.5 146.56 87.5z" fill="#00cf00"/><path d="m0 337 146.56 87.5 146.56-87.5zm0 175 146.56-87.5 146.56 87.5z" fill="#f00"/><g fill="#fff"><path d="m293.12 337h-27.31l-265.81 158.7v16.305h27.31l265.81-158.7z"/><path d="m197.168 424.496c0 27.948-22.656 50.604-50.604 50.604s-50.604-22.656-50.604-50.604 22.656-50.604 50.604-50.604 50.604 22.656 50.604 50.604z"/><path d="m0 337v16.305l265.81 158.7h27.31v-16.305l-265.81-158.7z"/></g><path d="m156.523 405.41-6.58.11-3.4 5.62-3.39-5.63-6.57-.14 3.18-5.75-3.16-5.768 6.57-.113 3.41-5.626 3.39 5.638 6.57.14-3.19 5.748zm-22.043 38.16-6.58.11-3.4 5.62-3.39-5.63-6.57-.14 3.18-5.75-3.16-5.768 6.57-.113 3.41-5.626 3.39 5.638 6.57.14-3.19 5.748zm44.627 0-6.58.11-3.4 5.62-3.39-5.63-6.57-.14 3.18-5.75-3.16-5.768 6.57-.113 3.41-5.626 3.39 5.638 6.57.14-3.19 5.748z" fill="#f00" stroke="#00de00" stroke-width="1pt"/></g></svg>