<svg height="512" width="512" xmlns="http://www.w3.org/2000/svg" xmlns:xlink="http://www.w3.org/1999/xlink"><clipPath id="a"><path d="m0 0h496.06v496.06h-496.06z"/></clipPath><g clip-path="url(#a)" fill-rule="evenodd" transform="scale(1.032)"><path d="m0 0h992.13v329.53h-992.13z" fill="#b20000"/><path d="m0 329.53h992.13v166.54h-992.13z" fill="#429f00"/><path d="m0 0h109.84v496.06h-109.84z" fill="#fff"/><g fill="#b20000" stroke-width="1pt"><path d="m5.23 8.402h5.23v8.41h-5.23zm15.693 0h15.692v8.41h-15.692zm5.225-8.412h5.23v8.41h-5.23zm26.159 0h5.23v8.41h-5.23zm20.917 8.412h15.692v8.41h-15.692zm5.241-8.412h5.23v8.41h-5.23z"/><path d="m15.697 16.81h10.463v8.41h-10.464zm15.693 0h10.46v8.41h-10.46zm36.61 0h10.46v8.41h-10.46zm15.69 0h10.463v8.41h-10.463zm-73.234 8.41h10.462v8.408h-10.462zm26.159 0h10.46v8.408h-10.46zm26.158 0h10.462v8.408h-10.462zm26.143 0h10.462v8.408h-10.462zm10.467-16.818h5.23v8.41h-5.23zm-94.153 25.226h10.462v8.408h-10.46zm36.61 0h10.462v8.408h-10.462zm52.317 0h10.462v8.408h-10.463zm-83.701 25.222h10.462v8.41h-10.462zm5.241 8.41h10.463v8.407h-10.464zm20.918-8.41h10.46v8.41h-10.46zm-5.225 8.41h10.46v8.407h-10.46zm-10.467 8.407h15.692v8.408h-15.692z"/><path d="m26.148 84.074h5.23v8.41h-5.23zm36.625-25.222h10.462v8.408h-10.462zm5.227 8.408h10.46v8.407h-10.46zm20.916-8.41h10.462v8.41h-10.462zm-5.226 8.41h10.463v8.407h-10.463zm-10.466 8.407h15.692v8.408h-15.692z"/><path d="m78.465 84.074h5.23v8.41h-5.23zm-26.158-8.407h5.23v8.408h-5.23zm-52.302 0h5.23v8.408h-5.23zm104.603 0h5.23v8.408h-5.23zm-78.46 42.04h5.23v8.408h-5.23z"/><path d="m20.923 126.114h15.692v8.408h-15.692zm-5.226 8.408h26.153v8.408h-26.152zm62.768-16.815h5.23v8.408h-5.23z"/><path d="m73.224 126.114h15.692v8.408h-15.692zm-5.224 8.408h26.153v8.408h-26.153zm5.224 42.04h26.154v8.408h-26.154zm-10.451-33.632h36.614v8.41h-36.614zm-52.317 0h36.614v8.41h-36.613zm5.241 42.04h15.693v8.408h-15.694zm-5.241-8.408h26.154v8.408h-26.154zm73.234-16.816h26.155v8.408h-26.155zm-5.225 25.224h15.692v8.408h-15.692z"/><path d="m20.923 193.377h5.23v8.41h-5.23zm62.767 0h5.23v8.41h-5.23zm-83.685-33.631h26.155v8.408h-26.156zm47.075 16.816h15.693v8.408h-15.693zm5.227 8.408h5.23v8.408h-5.23zm-15.692-25.224h36.615v8.408h-36.616zm20.917-126.118h10.462v8.408h-10.462z"/><path d="m47.08 42.035h15.693v8.408h-15.693zm-5.24 8.408h10.462v8.41h-10.462zm15.692 0h10.462v8.41h-10.462zm-57.527-8.408h10.462v8.408h-10.462zm5.225 8.408h10.462v8.41h-10.46zm94.153-8.408h10.462v8.408h-10.462zm-5.226 8.408h10.462v8.41h-10.463zm-94.152 75.671h5.23v8.408h-5.23zm104.603 0h5.23v8.408h-5.23zm-57.528 67.263h15.693v8.41h-15.693z"/><path d="m41.84 201.786h10.462v8.408h-10.462zm15.692 0h10.462v8.408h-10.462zm-20.917 8.408h10.46v8.408h-10.46zm26.158 0h10.462v8.408h-10.462z"/><path d="m31.39 218.6h10.46v8.41h-10.46zm36.61 0h10.46v8.41h-10.46zm-41.852 8.41h10.462v8.408h-10.462zm47.076 0h10.462v8.408h-10.462z"/><path d="m15.697 235.417h15.693v8.408h-15.694zm62.768 0h15.692v8.408h-15.692z"/><path d="m88.916 227.01h10.462v8.408h-10.462zm5.241-8.41h10.462v8.41h-10.463z"/><path d="m99.383 210.194h10.462v8.408h-10.462zm-88.927 16.816h10.462v8.408h-10.462zm-5.226-8.41h10.462v8.41h-10.46z"/><path d="m.005 210.194h10.462v8.408h-10.462zm20.918 33.631h5.23v8.408h-5.23zm62.767 0h5.23v8.408h-5.23zm-31.383-25.225h5.23v8.41h-5.23zm-15.692 25.225h5.23v8.408h-5.23zm31.385 0h5.23v8.408h-5.23zm-15.693 0h5.23v8.408h-5.23zm-52.302 0h5.23v8.408h-5.23zm104.603 0h5.23v8.408h-5.23zm-52.301-117.711h5.23v8.408h-5.23zm-26.159-84.079h5.23v8.408h-5.23zm52.317 0h5.23v8.408h-5.23zm-31.385 58.855h15.693v8.41h-15.693z"/><path d="m36.615 109.298h15.692v8.41h-15.692z"/><path d="m41.84 117.707h5.23v8.408h-5.23zm-10.45-16.817h10.46v8.41h-10.46z"/><path d="m36.615 92.483h15.692v8.408h-15.692z"/><path d="m41.84 84.074h5.23v8.41h-5.23zm15.692 8.409h15.692v8.408h-15.692z"/><path d="m62.773 84.074h5.23v8.41h-5.23zm5.227 16.816h10.46v8.41h-10.46z"/><path d="m57.532 109.298h15.692v8.41h-15.692z"/><path d="m62.773 117.707h5.23v8.408h-5.23zm20.917-16.817h10.463v8.41h-10.463z"/><path d="m88.916 92.483h15.692v8.408h-15.692z"/><path d="m99.383 100.89h10.462v8.41h-10.462z"/><path d="m88.916 109.298h15.692v8.41h-15.692z"/><path d="m94.157 117.707h5.23v8.408h-5.23zm0-33.633h5.23v8.41h-5.23zm-94.152 16.816h10.462v8.41h-10.462z"/><path d="m5.23 92.483h15.693v8.408h-15.693z"/><path d="m15.697 100.89h10.463v8.41h-10.464z"/><path d="m5.23 109.298h15.693v8.41h-15.693z"/><path d="m10.456 117.707h5.23v8.408h-5.23zm0-33.633h5.23v8.41h-5.23zm-5.226 67.264h20.923v8.408h-20.923zm26.16 0h20.92v8.408h-20.92zm26.142 0h20.923v8.408h-20.923zm26.158 0h20.923v8.408h-20.923zm-41.85 16.815h26.154v8.41h-26.154zm-36.61 0h26.154v8.41h-26.154zm73.235 0h26.154v8.41h-26.155zm26.143 33.633h5.23v8.408h-5.23zm-104.603 0h5.23v8.408h-5.23zm5.225 285.871h5.23v-8.408h-5.23zm15.693 0h15.692v-8.408h-15.692z"/><path d="m26.148 496.057h5.23v-8.408h-5.23zm26.159 0h5.23v-8.408h-5.23zm20.917-8.4h15.692v-8.408h-15.692z"/><path d="m78.465 496.057h5.23v-8.408h-5.23zm-62.768-16.812h10.463v-8.408h-10.464zm15.693 0h10.46v-8.408h-10.46zm36.61 0h10.46v-8.408h-10.46zm15.69 0h10.463v-8.408h-10.463zm-47.075-8.412h10.46v-8.408h-10.46zm26.158 0h10.462v-8.408h-10.462zm26.143 0h10.462v-8.408h-10.462zm10.467 16.824h5.23v-8.408h-5.23zm-94.153-25.224h10.462v-8.408h-10.46z"/><path d="m41.84 462.433h10.462v-8.408h-10.462zm52.317 0h10.462v-8.408h-10.463zm-83.701-25.223h10.462v-8.41h-10.462zm5.241-8.413h10.463v-8.408h-10.464zm20.918 8.413h10.46v-8.41h-10.46zm-5.225-8.413h10.46v-8.408h-10.46zm-10.467-8.412h15.692v-8.408h-15.692z"/><path d="m26.148 411.985h5.23v-8.408h-5.23zm36.625 25.225h10.462v-8.41h-10.462zm5.227-8.413h10.46v-8.408h-10.46zm20.916 8.413h10.462v-8.41h-10.462zm-5.226-8.413h10.463v-8.408h-10.463zm-10.466-8.412h15.692v-8.408h-15.692z"/><path d="m78.465 411.985h5.23v-8.408h-5.23zm-26.158 8.4h5.23v-8.408h-5.23zm-52.302 0h5.23v-8.408h-5.23zm104.603 0h5.23v-8.408h-5.23zm-78.46-42.035h5.23v-8.41h-5.23z"/><path d="m20.923 369.95h15.692v-8.41h-15.692zm-5.226-8.413h26.153v-8.408h-26.152zm62.768 16.813h5.23v-8.41h-5.23z"/><path d="m73.224 369.95h15.692v-8.41h-15.692zm-5.224-8.413h26.153v-8.408h-26.153zm5.224-42.035h26.154v-8.41h-26.154zm-10.451 33.624h36.614v-8.41h-36.614zm-52.317 0h36.614v-8.41h-36.613zm5.241-42.036h15.693v-8.412h-15.694zm-5.241 8.412h26.154v-8.41h-26.154zm73.234 16.812h26.155v-8.41h-26.155zm-5.225-25.224h15.692v-8.41h-15.692zm-78.46 25.224h26.155v-8.41h-26.156zm47.075-16.812h15.693v-8.41h-15.693zm5.227-8.412h5.23v-8.41h-5.23zm-15.692 25.224h36.615v-8.41h-36.616zm20.917 126.119h10.462v-8.408h-10.462zm-10.452-8.413h15.693v-8.407h-15.693zm-5.24-8.41h10.462v-8.41h-10.462zm15.692 0h10.462v-8.41h-10.462zm-57.527 8.41h10.462v-8.407h-10.462zm5.225-8.41h10.462v-8.41h-10.46zm94.153 8.41h10.462v-8.407h-10.462zm-5.226-8.41h10.462v-8.41h-10.463zm-94.152-75.66h5.23v-8.41h-5.23zm104.603 0h5.23v-8.41h-5.23zm-62.768-75.672h10.462v-8.41h-10.462zm15.692 0h10.462v-8.41h-10.462zm-20.917-8.412h10.46v-8.41h-10.46zm26.158 0h10.462v-8.41h-10.462zm-31.383-8.412h10.46v-8.41h-10.46zm36.61 0h10.46v-8.41h-10.46z"/><path d="m26.148 269.054h10.462v-8.41h-10.462zm47.076 0h10.462v-8.41h-10.462zm-57.527-8.412h15.693v-8.41h-15.694zm62.768 0h15.692v-8.41h-15.692zm10.451 8.412h10.462v-8.41h-10.462z"/><path d="m94.157 277.454h10.462v-8.41h-10.463zm5.226 8.412h10.462v-8.41h-10.462zm-88.927-16.812h10.462v-8.41h-10.462z"/><path d="m5.23 277.454h10.462v-8.41h-10.46zm-5.225 8.412h10.462v-8.41h-10.462zm20.918-33.633h5.23v-8.408h-5.23zm31.384 25.221h5.23v-8.41h-5.23zm0 92.496h5.23v-8.41h-5.23zm-26.159 84.07h5.23v-8.407h-5.23zm52.317 0h5.23v-8.407h-5.23zm-31.385-58.847h15.693v-8.408h-15.693zm-10.465-8.413h15.692v-8.407h-15.692zm5.225-8.41h5.23v-8.41h-5.23zm-10.45 16.823h10.46v-8.408h-10.46z"/><path d="m36.615 403.573h15.692v-8.408h-15.692zm5.225 8.412h5.23v-8.408h-5.23zm15.692-8.412h15.692v-8.408h-15.692zm5.241 8.412h5.23v-8.408h-5.23z"/><path d="m68 395.173h10.46v-8.408h-10.46zm-10.468-8.413h15.692v-8.407h-15.692zm5.241-8.41h5.23v-8.41h-5.23zm20.917 16.823h10.463v-8.408h-10.463z"/><path d="m88.916 403.573h15.692v-8.408h-15.692z"/><path d="m99.383 395.173h10.462v-8.408h-10.462zm-10.467-8.413h15.692v-8.407h-15.692zm5.241-8.41h5.23v-8.41h-5.23zm0 33.635h5.23v-8.408h-5.23zm-94.152-16.812h10.462v-8.408h-10.462z"/><path d="m5.23 403.573h15.693v-8.408h-15.693z"/><path d="m15.697 395.173h10.463v-8.408h-10.464zm-10.467-8.413h15.693v-8.407h-15.693zm5.226-8.41h5.23v-8.41h-5.23zm0 33.635h5.23v-8.408h-5.23zm-5.226-67.26h20.923v-8.408h-20.923zm26.16 0h20.92v-8.408h-20.92zm26.142 0h20.923v-8.408h-20.923zm26.158 0h20.923v-8.408h-20.923zm-41.85-16.823h26.154v-8.41h-26.154zm-36.61 0h26.154v-8.41h-26.154zm73.235 0h26.154v-8.41h-26.155zm26.143-33.624h5.23v-8.41h-5.23zm-104.603 0h5.23v-8.41h-5.23zm47.075-42.045h5.23v8.41h-5.23zm10.452 0h5.23v8.41h-5.23zm0-16.816h5.23v8.408h-5.23zm-10.452 0h5.23v8.408h-5.23zm-36.624 227.016h10.462v8.41h-10.462zm73.234-159.755h5.23v-8.41h-5.23zm-62.767 0h5.23v-8.41h-5.23zm26.155-8.404h15.692v8.407h-15.692z"/></g></g></svg>