<svg height="512" width="512" xmlns="http://www.w3.org/2000/svg" xmlns:xlink="http://www.w3.org/1999/xlink"><clipPath id="a"><path d="m229.34 6.346h489.26v489.26h-489.26z"/></clipPath><g clip-path="url(#a)" fill-rule="evenodd" stroke-width="1pt" transform="matrix(1.046 0 0 1.046 -240 -6.64)"><path d="m1.923 9.69h991.84v475.89h-991.84z" fill="#ffc621"/><path d="m0 333.64h993.18v161.97h-993.18z" fill="#ef2118"/><path d="m1.923 6.346h991.93v172h-991.93z" fill="#298c08"/><ellipse cx="534.22" cy="352.97" fill="#006bc6" rx="199.65" ry="199.65" transform="matrix(.515 0 0 .515 204.68 77.013)"/><path d="m434.08 186.19-6.148 4.322 22.45 31.555 5.99-3.82-22.293-32.056zm28.103 74.482-9.232-6.437 3.816-12.113-45.985.642-13.31-10.19 62.775-.677 11.642-35.27 6.253 14.26-15.957 49.785zm73.126-67.54-5.978-4.553-23.295 30.935 5.45 4.554 23.822-30.938zm-62.507 49.296 3.347-10.745 12.7-.023-14.508-43.642 5.693-15.768 19.613 59.636 37.138.44-11.704 10.27-52.278-.167zm86.646 48.894 2.497-7.086-36.594-12.673-2.66 6.585 36.756 13.174zm-66.11-44.355 11.255-.113 3.922 12.08 37.08-27.206 16.754.577-50.733 36.974 10.983 35.48-13.368-7.987-15.89-49.806zm-18.87 97.55 7.51.11.348-38.726-7.09-.422-.77 39.038zm20.968-76.795 3.695 10.63-10.2 7.568 37.606 26.475 4.793 16.063-51.218-36.302-30.128 21.72 3.31-15.217 42.14-30.938zm-98.682 12.41 2.22 7.177 36.93-11.663-1.792-6.872-37.358 11.356zm79.514-3.842-8.964 6.805-10.353-7.354-13.528 43.955-13.79 9.532 18.658-59.94-29.982-21.922 15.494-1.566 42.466 30.49z" fill="#ffc621"/></g></svg>