<svg height="512" width="512" xmlns="http://www.w3.org/2000/svg" xmlns:xlink="http://www.w3.org/1999/xlink"><clipPath id="a"><path d="m244.16 0h496.06v496.06h-496.06z"/></clipPath><g clip-path="url(#a)" fill-rule="evenodd" stroke-width="1pt" transform="matrix(1.032 0 0 1.032 -252 0)"><path d="m0 0h992.13v496.06h-992.13z" fill="#6797d6"/><path d="m507.845 84.45 38.874-.027-31.47 21.477 12.04 34.786-31.43-21.528-31.433 21.523 12.047-34.78-31.464-21.487 38.874.036 11.98-34.804m11.982 362.97 38.874.026-31.47-21.477 12.04-34.786-31.43 21.527-31.433-21.523 12.047 34.78-31.464 21.488 38.874-.036 11.98 34.803m-149.783-217.316 37.168-11.39-23.816 29.738 21.685 29.747-36.352-11.398-23.765 29.771 1.35-36.783-36.37-11.35 37.185-11.33 1.283-36.784m321.102 29.779-37.17-11.39 23.817 29.738-21.686 29.747 36.353-11.398 23.766 29.77-1.352-36.783 36.37-11.35-37.184-11.33-1.283-36.784" fill="#fff"/></g></svg>