<svg height="512" width="512" xmlns="http://www.w3.org/2000/svg" xmlns:xlink="http://www.w3.org/1999/xlink"><clipPath id="a"><path d="m113.56 0h493.5v493.5h-493.5z"/></clipPath><g clip-path="url(#a)" transform="matrix(1.0375 0 0 1.0375 -117.82 0)"><g fill-rule="evenodd" stroke-width="1pt"><path d="m0 0h987v164.5h-987z"/><path d="m0 164.5h987v164.5h-987z" fill="#fff"/><path d="m0 329h987v164.5h-987z" fill="#090"/><path d="m0 493.5 493.5-246.75-493.5-246.75z" fill="#f00"/><path d="m164.766 243.954 22.101 10.645h-24.531l5.459 23.923-15.294-19.2-15.296 19.2 5.459-23.923h-24.53l22.1-10.645-15.294-19.181 22.102 10.65 5.458-23.923 5.457 23.923 22.101-10.65z" fill="#fff"/></g></g></svg>