<svg height="512" width="512" xmlns="http://www.w3.org/2000/svg" xmlns:xlink="http://www.w3.org/1999/xlink"><defs><path id="a" d="m-28.58 47.5 1.733 1 46.713-80.91c2.732-.73 4.232-3.33 5.732-5.927 1-1.732 5-8.66 6.734-17.663-6.93 6.003-10.93 12.93-11.93 14.663-1.5 2.598-3 5.196-2.268 7.928z" stroke-miterlimit="10"/></defs><path d="m0 0h512v512h-512z" fill="#fff"/><path d="m0 0h512v153.6h-512z"/><path d="m0 358.4h512v153.6h-512z" fill="#060"/><g id="b" transform="matrix(3.2 0 0 3.2 255.854 256)"><use height="100%" stroke="#000" width="100%" xlink:href="#a"/><use fill="#fff" height="100%" width="100%" xlink:href="#a"/></g><use height="100%" transform="matrix(-1 0 0 1 511.708 0)" width="100%" xlink:href="#b"/><path d="m255.854 102.4c-19.2 0-51.2 51.2-60.8 76.8h-195.054v153.6h195.055c9.6 25.6 41.6 76.8 60.8 76.8s51.2-51.2 60.8-76.8h195.345v-153.6h-195.346c-9.6-25.6-41.6-76.8-60.8-76.8z" fill="#b00"/><path id="c" d="m316.654 332.8c9.6-25.6 16-51.2 16-76.8s-6.4-51.2-16-76.8c-9.6 25.6-16 51.2-16 76.8s6.4 51.2 16 76.8"/><use height="100%" transform="matrix(-1 0 0 1 511.708 0)" width="100%" xlink:href="#c"/><g fill="#fff" transform="matrix(3.2 0 0 3.2 255.854 256)"><ellipse rx="4" ry="6"/><path id="d" d="m1 5.85s4 8 4 21-4 21-4 21z"/><use height="100%" transform="scale(-1)" width="100%" xlink:href="#d"/><use height="100%" transform="scale(-1 1)" width="100%" xlink:href="#d"/><use height="100%" transform="scale(1 -1)" width="100%" xlink:href="#d"/></g></svg>