<svg height="512" width="512" xmlns="http://www.w3.org/2000/svg" xmlns:xlink="http://www.w3.org/1999/xlink"><clipPath id="a"><path d="m151.69-.347h745.12v745.12h-745.12z"/></clipPath><g clip-path="url(#a)" fill-rule="evenodd" transform="matrix(.68714 0 0 .68714 -104.23 .239)"><path d="m-5.3 0h1073.5v744.09h-1073.5z" fill="#ffe900"/><path d="m-5.838 0 1.246 536.41 835.33-536.76-836.57.35z" fill="#35a100"/><path d="m1069.5 744.09-1.9-557.75-842.62 558.17z" fill="#c70000"/><path d="m-5.3 576.85.708 167.92 182.28-.24 890.3-596.88-1-146-180.14-1.65-892.18 576.85z"/><path d="m818.048 269.088-64.225-2.242-25.28 60.153-14.313-61.51-64.235-2.152 55.38-35.764-14.425-61.479 48.54 39.402 55.323-35.853-25.377 60.121zm-400.58 260.38-64.225-2.242-25.28 60.153-14.313-61.51-64.235-2.152 55.38-35.764-14.425-61.479 48.54 39.402 55.323-35.853-25.377 60.121z" fill="#fff"/></g></svg>