<svg height="512" width="512" xmlns="http://www.w3.org/2000/svg" xmlns:xlink="http://www.w3.org/1999/xlink"><clipPath id="a"><path d="m92.213 7.828h593.6v485.5h-593.6z"/></clipPath><g clip-path="url(#a)" fill-rule="evenodd" transform="matrix(.86254 0 0 1.0546 -79.537 -8.255)"><path d="m991.81 492.88h-987.63v-484.5h987.63z" fill="#fff" stroke="#000" stroke-width="1.063"/><path d="m991.81 405.21h-987.63v87.672h987.63z" fill="#3e5698"/><path d="m991.81 384.9h-987.63v-268.55h987.63z" fill="#c60000"/><path d="m991.81 8.374h-987.63v87.672h987.63z" fill="#3e5698"/><path d="m473.088 250.648c0 60.167-61.572 108.94-137.523 108.94-75.953 0-137.523-48.775-137.523-108.94 0-60.167 61.572-108.94 137.523-108.94 75.953 0 137.523 48.774 137.523 108.94z" fill="#fff"/><path d="m402.854 326.75-66.077-38.59-67.132 39.129 26.38-62.896-66.148-38.516 82.374-.274 26.242-62.933 24.535 62.724 82.376-.385-67.213 39.046z" fill="#c40000"/></g></svg>