<svg height="512" width="512" xmlns="http://www.w3.org/2000/svg"><path d="m0 0h512v512h-512z" fill="#cd2a3e"/><path d="m0 76.8h512v358.4h-512z" fill="#006233"/><g fill="#ffc400"><path d="m416 164.907c-.427 87.978-71.936 159.146-160 159.146s-159.573-71.168-160-159.146a165.188 165.188 0 0 0 -5.376 41.813c0 91.307 73.984 165.376 165.376 165.376s165.376-73.984 165.376-165.376c0-14.421-1.877-28.501-5.376-41.813z"/><path d="m256 100.054-14.37 44.22-46.497.003 37.616 27.331-14.367 44.222 37.618-27.329 37.618 27.33-14.367-44.223 37.616-27.332-46.497-.002z"/></g></svg>