<svg height="512" width="512" xmlns="http://www.w3.org/2000/svg" xmlns:xlink="http://www.w3.org/1999/xlink"><clipPath id="a"><path d="m135.64 0h496.06v496.06h-496.06z"/></clipPath><g clip-path="url(#a)" fill-rule="evenodd" stroke-width="1pt" transform="matrix(1.0321 0 0 1.0321 -140 0)"><path d="m0 0h992.13v496.06h-992.13z" fill="#002170"/><path d="m0 226.82h992.13v42.42h-992.13z" fill="#ffb20d"/><path d="m292.413 424.352-31.89-31.944-10.275 43.95-11.634-43.613-30.883 32.92 11.73-43.588-43.202 13.078 31.946-31.883-43.952-10.282 43.613-11.635-32.928-30.881 43.588 11.73-13.07-43.204 31.883 31.945 10.283-43.952 11.634 43.614 30.874-32.92-11.722 43.588 43.203-13.078-31.954 31.884 43.952 10.282-43.614 11.637 32.929 30.881-43.589-11.73z" fill="#fff"/></g></svg>