<svg height="512" width="512" xmlns="http://www.w3.org/2000/svg" xmlns:xlink="http://www.w3.org/1999/xlink"><clipPath id="a"><path d="m0 0h512v512h-512z"/></clipPath><g clip-path="url(#a)" fill-rule="evenodd"><path d="m-26.003-24.954h592.45v595.94h-592.45z" fill="#fff"/><path d="m255.34-20.417h312.09v275.22h-312.09z" fill="#db0000"/><path d="m-54.446 254.81h309.82v316.17h-309.82zm233.426-73.22-46.477-29.211-46.249 29.498 17.201-47.936-46.164-29.6 57.113-.413 17.715-47.79 18.094 47.68 57.113.063-45.927 29.88 17.581 47.83z" fill="#0000ab"/><path d="m435.24 449.04-46.477-29.211-46.249 29.498 17.201-47.936-46.164-29.6 57.113-.413 17.715-47.79 18.094 47.68 57.113.063-45.927 29.88 17.581 47.83z" fill="#d80000"/></g></svg>