<svg height="512" width="512" xmlns="http://www.w3.org/2000/svg" xmlns:xlink="http://www.w3.org/1999/xlink"><path d="m0 0h512v256h-512z" fill="#0038a8"/><path d="m0 256h512v256h-512z" fill="#ce1126"/><path d="m443.405 256-443.405 256v-512" fill="#fff"/><g fill="#fcd116" transform="matrix(5.68889 0 0 5.68889 159.289 256)"><circle r="9"/><g id="a"><g id="b"><g id="c"><path d="m-1 0 .062.062.938-.062-.938-.062z" transform="scale(19)"/><path id="d" d="m-.884.116.05.05.834-.166z" transform="scale(19.2381)"/><use height="100%" transform="scale(1 -1)" width="100%" xlink:href="#d"/></g><use height="100%" transform="matrix(.70710678 .70710678 -.70710678 .70710678 0 0)" width="100%" xlink:href="#c"/></g><use height="100%" transform="rotate(90)" width="100%" xlink:href="#b"/></g><use height="100%" transform="scale(-1)" width="100%" xlink:href="#a"/><g transform="translate(-2.02)"><g id="e" transform="translate(37.962)"><path id="f" d="m5 0-3.382 1.176-.073 3.58-2.163-2.854-3.427 1.037 2.045-2.939z"/><use height="100%" transform="scale(1 -1)" width="100%" xlink:href="#f"/></g><use height="100%" transform="matrix(-.5 .8660254 -.8660254 -.5 0 0)" width="100%" xlink:href="#e"/><use height="100%" transform="matrix(-.5 -.8660254 .8660254 -.5 0 0)" width="100%" xlink:href="#e"/></g></g></svg>