<svg height="512" width="512" xmlns="http://www.w3.org/2000/svg" xmlns:xlink="http://www.w3.org/1999/xlink"><path d="m0 0h512v512h-512z" fill="#20603d"/><path d="m0 0h512v384h-512z" fill="#fad201"/><path d="m0 0h512v256h-512z" fill="#00a1de"/><g transform="matrix(.7111 0 0 .7111 374.4 133.76)"><g id="a"><path id="b" d="m116.1 0-80.408 4.7 76.452 25.35-78.884-16.274 67.286 44.273-71.986-36.134 53.535 60.18-60.18-53.534 36.135 71.986-44.273-67.287 16.272 78.884-25.349-76.452-4.7 80.408-1-117.1z" fill="#e5be01"/><use height="100%" transform="scale(1 -1)" width="100%" xlink:href="#b"/></g><use height="100%" transform="scale(-1 1)" width="100%" xlink:href="#a"/><circle fill="#e5be01" r="34.3" stroke="#00a1de" stroke-width="3.4"/></g></svg>