<svg height="512" width="512" xmlns="http://www.w3.org/2000/svg" xmlns:xlink="http://www.w3.org/1999/xlink"><clipPath id="a"><path d="m0 0h496.06v496.06h-496.06z"/></clipPath><g clip-path="url(#a)" fill-rule="evenodd" stroke-width="1pt" transform="scale(1.0321)"><path d="m0 491.39 956.69-491.39h-956.69z" fill="#0000d6"/><path d="m992.13 0-965.8 496.06h965.8z" fill="#006000"/><path d="m992.163 0h-53.167l-938.996 470.248v25.815h53.15l938.996-469.331v-26.734z" fill="#fc0"/><path d="m39.029 96.123 11.55-33.35-30.168-20.601 37.272.034 11.488-33.369 11.488 33.37 37.273-.025-30.175 20.592 11.546 33.354-30.137-20.641zm185.194 0 11.55-33.35-30.168-20.601 37.272.034 11.488-33.369 11.488 33.37 37.273-.025-30.175 20.592 11.546 33.354-30.137-20.641zm0 139.987 11.55-33.35-30.168-20.602 37.272.034 11.488-33.369 11.488 33.37 37.273-.025-30.175 20.592 11.546 33.354-30.137-20.641zm-92.054-69.176 11.55-33.35-30.168-20.601 37.272.034 11.488-33.369 11.488 33.37 37.273-.025-30.175 20.592 11.546 33.354-30.137-20.641zm-93.14 69.176 11.55-33.35-30.168-20.602 37.272.034 11.488-33.369 11.488 33.37 37.273-.025-30.175 20.592 11.546 33.354-30.137-20.641z" fill="#fff"/></g></svg>