<svg height="512" width="512" xmlns="http://www.w3.org/2000/svg" xmlns:xlink="http://www.w3.org/1999/xlink"><clipPath id="a"><path d="m0-.241h496.3v496.3h-496.3z"/></clipPath><g clip-path="url(#a)" fill-rule="evenodd" transform="matrix(1.0316 0 0 1.0316 0 .248)"><path d="m0-.241h744.09v496.3h-744.09z" fill="#ffe300"/><path d="m0 201.52h744.09v99.66h-744.09zm0-201.52h744.09v99.66h-744.09z" fill="#118600"/><path d="m0 0h297.12v301.18h-297.12z" fill="#d80000"/><path d="m130.3 124.25c0-.83 18.259-51.456 18.259-51.456l16.599 50.626s55.606 1.66 55.606.83-43.987 33.198-43.987 33.198 20.748 58.096 19.919 56.436c-.83-1.66-48.137-34.858-48.137-34.858s-48.136 33.198-47.306 33.198 18.258-54.776 18.258-54.776l-43.156-32.37 53.946-.83z" fill="#fff"/><path d="m0 396.4h744.09v99.66h-744.09z" fill="#118600"/></g></svg>