<svg height="512" width="512" xmlns="http://www.w3.org/2000/svg" xmlns:xlink="http://www.w3.org/1999/xlink"><path d="m0 0h512v512h-512z" fill="#060"/><path d="m0 0h512v365.714h-512z" fill="#fff"/><path d="m0 0h512v146.286h-512z" fill="#c00"/><g fill="#f8c300" transform="matrix(.73143 0 0 .73143 -256 0)"><path d="m672 340.7a12.5 12.5 0 0 1 23.3 5.9v50h9.4v-50a12.5 12.5 0 0 1 23.3-5.9 29.5 29.5 0 1 0 -56 0"/><path d="m678.7 327.65a20 20 0 0 1 21.3 9.55 20 20 0 0 1 21.3-9.55 21.5 21.5 0 0 0 -42.6 0" fill="#fff"/><path id="a" d="m695.3 376.627a38 38 0 0 1 -63.845 24.316 39.5 39.5 0 0 1 -59.734 17.467c3.65 36.426 58.252 28.989 62.32-6.429 17.154 30.115 54.873 21.49 65.91-15.4z"/><use height="100%" transform="matrix(-1 0 0 1 1400 0)" width="100%" xlink:href="#a"/><path id="b" d="m658.84 441.31c-7.618 16.446-22.845 19.271-36.164 5.995 0 0 5.354-3.783 11.086-4.826-1.075-4.574 1.13-10.902 4.235-14.324 3.258 2.227 7.804 6.689 8.96 11.874 8.03-1.04 11.883 1.282 11.883 1.282z"/><use height="100%" transform="matrix(.98665754 .16280937 -.16280937 .98665754 140.238454 -103.239225)" width="100%" xlink:href="#b"/><use height="100%" transform="matrix(.94698622 .32127419 -.32127419 .94698622 295.414097 -182.268851)" width="100%" xlink:href="#b"/><path d="m603 478a340 340 0 0 1 194 0" fill="none" stroke="#f8c300" stroke-width="16"/><g transform="translate(700 380)"><path id="c" d="m488533-158734-790463 574305 301930-929245 301930 929245-790463-574305z" transform="matrix(.00005 0 0 .00005 0 -140)"/><g id="d"><use height="100%" transform="translate(-70 -121.244)" width="100%" xlink:href="#c"/><use height="100%" transform="translate(-121.244 -70)" width="100%" xlink:href="#c"/><use height="100%" transform="translate(-140)" width="100%" xlink:href="#c"/></g><use height="100%" transform="scale(-1 1)" width="100%" xlink:href="#d"/></g></g></svg>