<svg height="512" width="512" xmlns="http://www.w3.org/2000/svg" xmlns:xlink="http://www.w3.org/1999/xlink"><clipPath id="a"><path d="m124.02 0h496.06v496.06h-496.06z"/></clipPath><g clip-path="url(#a)" fill-rule="evenodd" transform="matrix(1.0321 0 0 1.0321 -128 0)"><path d="m0 0h744.09v496.06h-744.09z" fill="#e70013"/><path d="m497.81 247.81c0 69.096-56.014 125.109-125.11 125.109s-125.108-56.014-125.108-125.11 56.013-125.109 125.108-125.109 125.11 56.014 125.11 125.11z" fill="#fff"/><g fill="#e70013"><path d="m372.705 330.782c-45.799 0-82.969-37.17-82.969-82.969 0-45.8 37.17-82.97 82.969-82.97 11.45 0 24.483 2.634 33.336 9.136-60.681 2.284-76.029 53.75-76.029 74.492s9.813 67.001 76.028 73.833c-7.535 4.857-21.885 8.478-33.335 8.478z"/><path d="m445.8 282.71-37.68-13.74-24.92 31.41 1.43-40.07-37.58-14 38.56-11.02 1.69-40.07 22.4 33.27 38.63-10.77-24.71 31.58z"/></g></g></svg>