<svg height="512" width="512" xmlns="http://www.w3.org/2000/svg" xmlns:xlink="http://www.w3.org/1999/xlink"><clipPath id="a"><path d="m0 0h496.06v496.06h-496.06z"/></clipPath><g clip-path="url(#a)" fill-rule="evenodd" stroke-width="1pt" transform="scale(1.0321)"><path d="m0 0h744.09v496.06h-744.09z" fill="#de2110"/><path d="m0 0h373.69v248.03h-373.69z" fill="#08399c"/><path d="m273.324 173.001-45.86-9.43 9.77 45.79-35.01-31.09-14.44 44.54-14.77-44.44-34.77 31.36 9.43-45.86-45.79 9.76 31.09-35-44.539-14.44 44.43-14.77-31.35-34.773 45.86 9.427-9.76-45.792 35 31.095 14.44-44.54 14.77 44.432 34.77-31.354-9.43 45.863 45.79-9.767-31.09 35.01 44.54 14.43-44.43 14.77z" fill="#fff"/><path d="m231.045 169.48-14.47 7.684-14.117 8.34-16.391-.564-16.392.191-13.914-8.663-14.298-8.017-7.706-14.442-8.362-14.069.556-16.347-.182-16.358 8.686-13.874 8.039-14.258 14.47-7.687 14.117-8.34 16.391.562 16.402-.186 13.914 8.66 14.288 8.018 7.706 14.438 8.362 14.069-.556 16.347.182 16.358-8.686 13.877z" fill="#005387"/><path d="m237.028 124.291c0 27.754-22.499 50.253-50.253 50.253s-50.253-22.499-50.253-50.253 22.5-50.253 50.253-50.253 50.253 22.5 50.253 50.253z" fill="#fff"/></g></svg>