<svg height="512" width="512" xmlns="http://www.w3.org/2000/svg" xmlns:xlink="http://www.w3.org/1999/xlink"><path d="m0 341.333h512v170.667h-512z" fill="#1eb53a"/><path d="m0 0h512v170.667h-512z" fill="#0099b5"/><path d="m0 163.84h512v184.32h-512z" fill="#ce1126"/><path d="m0 174.08h512v163.84h-512z" fill="#fff"/><circle cx="143.36" cy="81.92" fill="#fff" r="61.44"/><circle cx="163.84" cy="81.92" fill="#0099b5" r="61.44"/><g fill="#fff" transform="matrix(2.048 0 0 2.048 278.528 131.072)"><g id="a"><g id="b"><g id="c"><g id="d"><path id="e" d="m0-6-1.854 5.706 2.854.927"/><use height="100%" transform="scale(-1 1)" width="100%" xlink:href="#e"/></g><use height="100%" transform="matrix(.30901699 .95105652 -.95105652 .30901699 0 0)" width="100%" xlink:href="#d"/></g><use height="100%" transform="matrix(.30901699 -.95105652 .95105652 .30901699 0 0)" width="100%" xlink:href="#d"/><use height="100%" transform="matrix(-.80901699 .58778525 -.58778525 -.80901699 0 0)" width="100%" xlink:href="#c"/></g><use height="100%" width="100%" xlink:href="#b" y="-24"/><use height="100%" width="100%" xlink:href="#b" y="-48"/></g><use height="100%" width="100%" x="24" xlink:href="#a"/><use height="100%" width="100%" x="48" xlink:href="#a"/><use height="100%" width="100%" x="-48" xlink:href="#b"/><use height="100%" width="100%" x="-24" xlink:href="#b"/><use height="100%" width="100%" x="-24" xlink:href="#b" y="-24"/></g></svg>